<svg width="216" height="120" viewBox="0 0 216 120" fill="none" xmlns="http://www.w3.org/2000/svg">
<ellipse cx="106" cy="60" rx="13" ry="60" fill="black"/>
<path d="M2.32833 77.0745L4.04348 76.4575L30.4239 69.3764L96.8254 48.1851C98.1992 47.7467 99.5698 48.8664 99.4143 50.3001C99.3285 51.0912 98.7805 51.7556 98.0202 51.9905L33.3873 71.9515L33.1212 74.4043C32.8394 77.0024 31.0833 79.2043 28.6131 80.057L13.295 85.3445C12.9578 85.4609 12.612 85.5504 12.2607 85.6121L9.99579 86.0101C9.49984 86.0973 8.99099 86.0774 8.50337 85.9517C7.93868 85.8063 7.41879 85.5233 6.9901 85.128L1.07998 79.6783C0.801214 79.4213 0.660884 79.0472 0.701777 78.6702C0.73486 78.3653 0.883888 78.0847 1.11804 77.8865L1.53757 77.5314C1.77178 77.3331 2.03959 77.1784 2.32833 77.0745Z" fill="black"/>
<path d="M213.416 77.0745L211.701 76.4575L185.321 69.3764L118.919 48.1851C117.546 47.7467 116.175 48.8664 116.33 50.3001C116.416 51.0912 116.964 51.7556 117.725 51.9905L182.358 71.9515L182.624 74.4043C182.905 77.0024 184.662 79.2043 187.132 80.057L202.45 85.3445C202.787 85.4609 203.133 85.5504 203.484 85.6121L205.749 86.0101C206.245 86.0973 206.754 86.0774 207.241 85.9517C207.806 85.8063 208.326 85.5233 208.755 85.128L214.665 79.6783C214.944 79.4213 215.084 79.0472 215.043 78.6702C215.01 78.3653 214.861 78.0847 214.627 77.8865L214.207 77.5314C213.973 77.3331 213.705 77.1784 213.416 77.0745Z" fill="black"/>
</svg>
