<svg width="176" height="262" viewBox="0 0 176 262" fill="none" xmlns="http://www.w3.org/2000/svg">
<path d="M9.68937 154.684L10.5938 153.478L30.0654 133.391L75.4625 79.0787C77.1515 77.0579 80.7098 78.4427 80.9712 81.2225C81.0438 81.9954 80.8186 82.7343 80.3411 83.2894L33.21 138.074L34.2889 149.549C34.4399 151.155 34.0088 152.697 33.0737 153.897L20.6766 169.81C20.4192 170.14 20.1191 170.434 19.7826 170.686L18.2211 171.851C17.819 172.151 17.2711 172.219 16.7553 172.032C16.3711 171.893 16.0364 171.623 15.8145 171.275L9.34906 161.126C8.86959 160.373 8.57643 159.533 8.49654 158.683C8.43805 158.061 8.49505 157.446 8.6647 156.87L8.76046 156.544C8.95977 155.866 9.27353 155.238 9.68937 154.684Z" fill="black"/>
<path d="M165.618 154.684L164.713 153.478L145.242 133.391L99.8446 79.0787C98.1556 77.0579 94.5972 78.4427 94.3359 81.2225C94.2632 81.9954 94.4885 82.7343 94.966 83.2894L142.097 138.074L141.018 149.549C140.867 151.155 141.298 152.697 142.233 153.897L154.63 169.81C154.888 170.14 155.188 170.434 155.524 170.686L157.086 171.851C157.488 172.151 158.036 172.219 158.552 172.032C158.936 171.893 159.271 171.623 159.493 171.275L165.958 161.126C166.437 160.373 166.731 159.533 166.811 158.683C166.869 158.061 166.812 157.446 166.642 156.87L166.547 156.544C166.347 155.866 166.034 155.238 165.618 154.684Z" fill="black"/>
<ellipse cx="88.0001" cy="131" rx="13" ry="131" fill="black"/>
</svg>
