<svg width="216" height="217" viewBox="0 0 216 217" fill="none" xmlns="http://www.w3.org/2000/svg">
<ellipse cx="106" cy="108.5" rx="13" ry="108.5" fill="black"/>
<path d="M2.32833 106.983L4.04348 106.366L30.4239 99.2848L96.8254 78.0936C98.1992 77.6551 99.5698 78.7748 99.4143 80.2085C99.3285 80.9997 98.7805 81.6641 98.0202 81.8989L33.3873 101.86L33.1212 104.313C32.8394 106.911 31.0833 109.113 28.6131 109.965L13.295 115.253C12.9578 115.369 12.612 115.459 12.2607 115.521L9.99579 115.919C9.49984 116.006 8.99099 115.986 8.50337 115.86C7.93868 115.715 7.41879 115.432 6.9901 115.036L1.07998 109.587C0.801214 109.33 0.660884 108.956 0.701777 108.579C0.73486 108.274 0.883888 107.993 1.11804 107.795L1.53757 107.44C1.77178 107.242 2.03959 107.087 2.32833 106.983Z" fill="black"/>
<path d="M213.416 106.983L211.701 106.366L185.321 99.2848L118.919 78.0936C117.546 77.6551 116.175 78.7748 116.33 80.2085C116.416 80.9997 116.964 81.6641 117.725 81.8989L182.358 101.86L182.624 104.313C182.905 106.911 184.662 109.113 187.132 109.965L202.45 115.253C202.787 115.369 203.133 115.459 203.484 115.521L205.749 115.919C206.245 116.006 206.754 115.986 207.241 115.86C207.806 115.715 208.326 115.432 208.755 115.036L214.665 109.587C214.944 109.33 215.084 108.956 215.043 108.579C215.01 108.274 214.861 107.993 214.627 107.795L214.207 107.44C213.973 107.242 213.705 107.087 213.416 106.983Z" fill="black"/>
</svg>
