<svg width="178" height="166" viewBox="0 0 178 166" fill="none" xmlns="http://www.w3.org/2000/svg">
<ellipse cx="87" cy="83" rx="13" ry="83" fill="black"/>
<path d="M174.914 96.8681L173.76 95.9044L151.044 80.9277L96.1443 39.3406C94.1984 37.8666 91.4327 39.4328 91.696 41.8598C91.78 42.6339 92.1843 43.3375 92.811 43.7998L148.828 85.1213L149.804 94.1172C149.997 95.8924 150.885 97.519 152.274 98.6408L166.832 110.397C167.188 110.684 167.577 110.929 167.99 111.126L169.685 111.934C170.132 112.147 170.649 112.157 171.103 111.961C171.477 111.799 171.781 111.51 171.961 111.144L176.4 102.128C176.715 101.487 176.842 100.77 176.765 100.059C176.708 99.5338 176.541 99.026 176.274 98.5692L176.105 98.2778C175.792 97.7424 175.389 97.2654 174.914 96.8681Z" fill="black"/>
<path d="M3.08625 131.868L4.23987 130.904L26.9563 115.928L81.8557 74.3406C83.8016 72.8666 86.5673 74.4328 86.304 76.8598C86.22 77.6339 85.8156 78.3375 85.189 78.7998L29.1718 120.121L28.1959 129.117C28.0034 130.892 27.1153 132.519 25.726 133.641L11.1678 145.397C10.8118 145.684 10.4232 145.929 10.0101 146.126L8.31454 146.934C7.86803 147.147 7.35134 147.157 6.89725 146.961C6.52333 146.799 6.21916 146.51 6.03924 146.144L1.60004 137.128C1.28451 136.487 1.15787 135.77 1.2349 135.059C1.29193 134.534 1.4591 134.026 1.72551 133.569L1.89545 133.278C2.20768 132.742 2.61061 132.265 3.08625 131.868Z" fill="black"/>
</svg>
