<svg width="143" height="256" viewBox="0 0 143 256" fill="none" xmlns="http://www.w3.org/2000/svg">
<ellipse cx="71.4999" cy="128" rx="9.5" ry="128" fill="black"/>
<path d="M140.214 124.254L139.371 123.432L121.664 110.057L79.4656 73.0094C77.8919 71.6277 75.2682 73.1594 75.4142 75.3746C75.4544 75.9848 75.7206 76.5319 76.1594 76.9062L119.802 114.138L120.374 122.821C120.48 124.419 121.142 125.864 122.242 126.899L133.572 137.557C133.812 137.783 134.081 137.975 134.373 138.129L135.739 138.853C136.09 139.038 136.528 139.023 136.907 138.81C137.188 138.653 137.413 138.402 137.541 138.103L141.303 129.3C141.583 128.645 141.706 127.947 141.661 127.267C141.629 126.77 141.507 126.293 141.302 125.86L141.194 125.633C140.948 125.113 140.617 124.648 140.214 124.254Z" fill="black"/>
<path d="M2.15941 183.254L3.00194 182.432L20.7093 169.057L62.9073 132.009C64.481 130.628 67.1047 132.159 66.9587 134.375C66.9185 134.985 66.6523 135.532 66.2135 135.906L22.5707 173.138L21.9986 181.821C21.8933 183.419 21.2312 184.864 20.1306 185.899L8.80084 196.557C8.56088 196.783 8.2921 196.975 8.00027 197.129L6.63384 197.853C6.28264 198.038 5.84527 198.023 5.4659 197.81C5.18527 197.653 4.95971 197.402 4.83206 197.103L1.06952 188.3C0.789817 187.645 0.666783 186.947 0.711552 186.267C0.744304 185.77 0.866225 185.293 1.07133 184.86L1.17893 184.633C1.42479 184.113 1.75592 183.648 2.15941 183.254Z" fill="black"/>
</svg>
