<svg width="216" height="166" viewBox="0 0 216 166" fill="none" xmlns="http://www.w3.org/2000/svg">
<ellipse cx="109" cy="83" rx="13" ry="83" fill="black"/>
<path d="M2.32833 83.0745L4.04348 82.4575L30.4239 75.3764L96.8254 54.1851C98.1992 53.7467 99.5698 54.8664 99.4143 56.3001C99.3285 57.0912 98.7805 57.7556 98.0202 57.9905L33.3873 77.9515L33.1212 80.4043C32.8394 83.0024 31.0833 85.2043 28.6131 86.057L13.295 91.3445C12.9578 91.4609 12.612 91.5504 12.2607 91.6121L9.99579 92.0101C9.49984 92.0973 8.99099 92.0774 8.50337 91.9517C7.93868 91.8063 7.41879 91.5233 6.9901 91.128L1.07998 85.6783C0.801214 85.4213 0.660884 85.0472 0.701777 84.6702C0.73486 84.3653 0.883888 84.0847 1.11804 83.8865L1.53757 83.5314C1.77178 83.3331 2.03959 83.1784 2.32833 83.0745Z" fill="black"/>
<path d="M213.416 83.0745L211.701 82.4575L185.321 75.3764L118.919 54.1851C117.546 53.7467 116.175 54.8664 116.33 56.3001C116.416 57.0912 116.964 57.7556 117.725 57.9905L182.358 77.9515L182.624 80.4043C182.905 83.0024 184.662 85.2043 187.132 86.057L202.45 91.3445C202.787 91.4609 203.133 91.5504 203.484 91.6121L205.749 92.0101C206.245 92.0973 206.754 92.0774 207.241 91.9517C207.806 91.8063 208.326 91.5233 208.755 91.128L214.665 85.6783C214.944 85.4213 215.084 85.0472 215.043 84.6702C215.01 84.3653 214.861 84.0847 214.627 83.8865L214.207 83.5314C213.973 83.3331 213.705 83.1784 213.416 83.0745Z" fill="black"/>
<path d="M2.32833 117.468L4.04348 116.851L30.4239 109.769L96.8254 88.5782C98.1992 88.1398 99.5698 89.2594 99.4143 90.6931C99.3285 91.4843 98.7805 92.1487 98.0202 92.3835L33.3873 112.345L33.1212 114.797C32.8394 117.395 31.0833 119.597 28.6131 120.45L13.295 125.738C12.9578 125.854 12.612 125.943 12.2607 126.005L9.99579 126.403C9.49984 126.49 8.99099 126.47 8.50337 126.345C7.93868 126.199 7.41879 125.916 6.9901 125.521L1.07998 120.071C0.801214 119.814 0.660884 119.44 0.701777 119.063C0.73486 118.758 0.883888 118.478 1.11804 118.28L1.53757 117.924C1.77178 117.726 2.03959 117.571 2.32833 117.468Z" fill="black"/>
<path d="M213.416 117.468L211.701 116.851L185.321 109.769L118.919 88.5782C117.546 88.1398 116.175 89.2594 116.33 90.6931C116.416 91.4843 116.964 92.1487 117.725 92.3835L182.358 112.345L182.624 114.797C182.905 117.395 184.662 119.597 187.132 120.45L202.45 125.738C202.787 125.854 203.133 125.943 203.484 126.005L205.749 126.403C206.245 126.49 206.754 126.47 207.241 126.345C207.806 126.199 208.326 125.916 208.755 125.521L214.665 120.071C214.944 119.814 215.084 119.44 215.043 119.063C215.01 118.758 214.861 118.478 214.627 118.28L214.207 117.924C213.973 117.726 213.705 117.571 213.416 117.468Z" fill="black"/>
</svg>
