<svg width="180" height="320" viewBox="0 0 180 320" fill="none" xmlns="http://www.w3.org/2000/svg">
<ellipse cx="92" cy="160" rx="13" ry="160" fill="black"/>
<path d="M176.914 145.868L175.76 144.904L153.044 129.928L98.1445 88.3406C96.1985 86.8666 93.4328 88.4328 93.6961 90.8598C93.7801 91.6339 94.1845 92.3375 94.8111 92.7998L150.828 134.121L151.804 143.117C151.997 144.892 152.885 146.519 154.274 147.641L168.832 159.397C169.188 159.684 169.577 159.929 169.99 160.126L171.686 160.934C172.132 161.147 172.649 161.157 173.103 160.961C173.477 160.799 173.781 160.51 173.961 160.144L178.4 151.128C178.716 150.487 178.842 149.77 178.765 149.059C178.708 148.534 178.541 148.026 178.275 147.569L178.105 147.278C177.792 146.742 177.389 146.265 176.914 145.868Z" fill="black"/>
<path d="M3.08626 149.868L4.23989 148.904L26.9564 133.928L81.8557 92.3406C83.8016 90.8666 86.5673 92.4328 86.304 94.8598C86.22 95.6339 85.8157 96.3375 85.189 96.7998L29.1718 138.121L28.196 147.117C28.0034 148.892 27.1153 150.519 25.726 151.641L11.1679 163.397C10.8118 163.684 10.4232 163.929 10.0101 164.126L8.31455 164.934C7.86805 165.147 7.35136 165.157 6.89727 164.961C6.52335 164.799 6.21917 164.51 6.03926 164.144L1.60006 155.128C1.28453 154.487 1.15788 153.77 1.23492 153.059C1.29195 152.534 1.45911 152.026 1.72552 151.569L1.89546 151.278C2.20769 150.742 2.61063 150.265 3.08626 149.868Z" fill="black"/>
<path d="M3.08626 229.868L4.23989 228.904L26.9564 213.928L81.8557 172.341C83.8016 170.867 86.5673 172.433 86.304 174.86C86.22 175.634 85.8157 176.338 85.189 176.8L29.1718 218.121L28.196 227.117C28.0034 228.892 27.1153 230.519 25.726 231.641L11.1679 243.397C10.8118 243.684 10.4232 243.929 10.0101 244.126L8.31455 244.934C7.86805 245.147 7.35136 245.157 6.89727 244.961C6.52335 244.799 6.21917 244.51 6.03926 244.144L1.60006 235.128C1.28453 234.487 1.15788 233.77 1.23492 233.059C1.29195 232.534 1.45911 232.026 1.72552 231.569L1.89546 231.278C2.20769 230.742 2.61063 230.265 3.08626 229.868Z" fill="black"/>
<path d="M175.914 222.868L174.76 221.904L152.044 206.928L97.1445 165.341C95.1985 163.867 92.4328 165.433 92.6961 167.86C92.7801 168.634 93.1845 169.338 93.8111 169.8L149.828 211.121L150.804 220.117C150.997 221.892 151.885 223.519 153.274 224.641L167.832 236.397C168.188 236.684 168.577 236.929 168.99 237.126L170.686 237.934C171.132 238.147 171.649 238.157 172.103 237.961C172.477 237.799 172.781 237.51 172.961 237.144L177.4 228.128C177.716 227.487 177.842 226.77 177.765 226.059C177.708 225.534 177.541 225.026 177.275 224.569L177.105 224.278C176.792 223.742 176.389 223.265 175.914 222.868Z" fill="black"/>
</svg>
