<svg width="187" height="231" viewBox="0 0 187 231" fill="none" xmlns="http://www.w3.org/2000/svg">
<ellipse cx="93" cy="115.5" rx="15" ry="115.5" fill="black"/>
<path d="M183.914 99.8681L182.76 98.9044L160.044 83.9277L105.144 42.3406C103.198 40.8666 100.433 42.4328 100.696 44.8598C100.78 45.6339 101.184 46.3375 101.811 46.7998L157.828 88.1213L158.804 97.1172C158.997 98.8924 159.885 100.519 161.274 101.641L175.832 113.397C176.188 113.684 176.577 113.929 176.99 114.126L178.685 114.934C179.132 115.147 179.649 115.157 180.103 114.961C180.477 114.799 180.781 114.51 180.961 114.144L185.4 105.128C185.715 104.487 185.842 103.77 185.765 103.059C185.708 102.534 185.541 102.026 185.274 101.569L185.105 101.278C184.792 100.742 184.389 100.265 183.914 99.8681Z" fill="black"/>
<path d="M183.914 168.868L182.76 167.904L160.044 152.928L105.144 111.341C103.198 109.867 100.433 111.433 100.696 113.86C100.78 114.634 101.184 115.338 101.811 115.8L157.828 157.121L158.804 166.117C158.997 167.892 159.885 169.519 161.274 170.641L175.832 182.397C176.188 182.684 176.577 182.929 176.99 183.126L178.685 183.934C179.132 184.147 179.649 184.157 180.103 183.961C180.477 183.799 180.781 183.51 180.961 183.144L185.4 174.128C185.715 173.487 185.842 172.77 185.765 172.059C185.708 171.534 185.541 171.026 185.274 170.569L185.105 170.278C184.792 169.742 184.389 169.265 183.914 168.868Z" fill="black"/>
<path d="M3.08625 130.868L4.23987 129.904L26.9563 114.928L81.8557 73.3406C83.8016 71.8666 86.5673 73.4328 86.304 75.8598C86.22 76.6339 85.8156 77.3375 85.189 77.7998L29.1718 119.121L28.1959 128.117C28.0034 129.892 27.1153 131.519 25.726 132.641L11.1678 144.397C10.8118 144.684 10.4232 144.929 10.0101 145.126L8.31454 145.934C7.86803 146.147 7.35134 146.157 6.89725 145.961C6.52333 145.799 6.21916 145.51 6.03924 145.144L1.60004 136.128C1.28451 135.487 1.15787 134.77 1.2349 134.059C1.29193 133.534 1.4591 133.026 1.72551 132.569L1.89545 132.278C2.20768 131.742 2.61061 131.265 3.08625 130.868Z" fill="black"/>
<path d="M5.08625 197.312L6.23987 196.348L28.9563 181.371L83.8557 139.784C85.8016 138.31 88.5673 139.876 88.304 142.303C88.22 143.078 87.8156 143.781 87.189 144.243L31.1718 185.565L30.1959 194.561C30.0034 196.336 29.1153 197.963 27.726 199.084L13.1678 210.84C12.8118 211.128 12.4232 211.373 12.0101 211.57L10.3145 212.378C9.86803 212.591 9.35134 212.6 8.89725 212.404C8.52333 212.243 8.21916 211.953 8.03924 211.588L3.60004 202.572C3.28451 201.931 3.15787 201.213 3.2349 200.503C3.29193 199.977 3.4591 199.47 3.72551 199.013L3.89545 198.721C4.20768 198.186 4.61061 197.709 5.08625 197.312Z" fill="black"/>
</svg>
