<svg width="162" height="231" viewBox="0 0 162 231" fill="none" xmlns="http://www.w3.org/2000/svg">
<ellipse cx="80.5668" cy="115.5" rx="12.9947" ry="115.5" fill="black"/>
<path d="M159.275 99.8186L158.327 98.9044L138.647 83.9277L91.5477 42.743C89.7994 41.2142 87.031 42.7 87.2517 45.0487C87.3136 45.7074 87.6244 46.3097 88.1204 46.732L136.728 88.1213L137.599 97.384C137.75 98.9998 138.477 100.489 139.646 101.578L152.379 113.447C152.652 113.701 152.955 113.921 153.282 114.1L154.787 114.929C155.175 115.142 155.648 115.149 156.054 114.946C156.358 114.794 156.601 114.537 156.735 114.223L160.597 105.168C160.882 104.498 160.997 103.771 160.93 103.055C160.881 102.531 160.735 102.023 160.5 101.558L160.374 101.309C160.092 100.752 159.721 100.249 159.275 99.8186Z" fill="black"/>
<path d="M159.275 168.819L158.327 167.904L138.647 152.928L91.5477 111.743C89.7993 110.214 87.031 111.7 87.2517 114.049C87.3136 114.707 87.6244 115.31 88.1203 115.732L136.728 157.121L137.599 166.384C137.75 168 138.477 169.489 139.646 170.578L152.379 182.447C152.652 182.701 152.955 182.921 153.282 183.1L154.787 183.929C155.175 184.142 155.648 184.149 156.054 183.946C156.358 183.794 156.601 183.537 156.735 183.223L160.597 174.168C160.882 173.498 160.997 172.771 160.93 172.055C160.881 171.531 160.735 171.023 160.5 170.558L160.373 170.309C160.092 169.752 159.721 169.249 159.275 168.819Z" fill="black"/>
<path d="M2.72499 130.819L3.67304 129.904L23.3526 114.928L70.4523 73.743C72.2006 72.2142 74.969 73.7 74.7483 76.0487C74.6864 76.7074 74.3756 77.3097 73.8796 77.732L25.2718 119.121L24.4014 128.384C24.2495 130 23.5226 131.489 22.3537 132.578L9.62116 144.447C9.34838 144.701 9.04527 144.921 8.71833 145.1L7.21342 145.929C6.82529 146.142 6.35238 146.149 5.94612 145.946C5.64151 145.794 5.39935 145.537 5.26538 145.223L1.40325 136.168C1.1175 135.498 1.00292 134.771 1.07019 134.055C1.11947 133.531 1.26532 133.023 1.50035 132.558L1.62648 132.309C1.90751 131.752 2.27859 131.249 2.72499 130.819Z" fill="black"/>
<path d="M4.45761 197.262L5.40566 196.348L25.0852 181.371L72.1849 140.187C73.9333 138.658 76.7016 140.144 76.4809 142.492C76.419 143.151 76.1082 143.753 75.6122 144.176L27.0044 185.565L26.134 194.828C25.9821 196.443 25.2552 197.932 24.0863 199.022L11.3538 210.89C11.081 211.145 10.7779 211.364 10.4509 211.544L8.94604 212.372C8.55791 212.586 8.085 212.592 7.67874 212.39C7.37413 212.238 7.13197 211.981 6.998 211.666L3.13587 202.612C2.85012 201.942 2.73554 201.215 2.80281 200.499C2.85209 199.975 2.99794 199.467 3.23297 199.002L3.3591 198.752C3.64013 198.196 4.01121 197.693 4.45761 197.262Z" fill="black"/>
</svg>
