<svg width="156" height="299" viewBox="0 0 156 299" fill="none" xmlns="http://www.w3.org/2000/svg">
<ellipse cx="76" cy="149.5" rx="11" ry="149.5" fill="black"/>
<path d="M152.644 126.819L151.696 125.904L132.016 110.928L84.9167 69.743C83.1683 68.2142 80.4 69.7 80.6207 72.0487C80.6826 72.7074 80.9934 73.3097 81.4893 73.732L130.097 115.121L130.968 124.384C131.119 126 131.846 127.489 133.015 128.578L145.748 140.447C146.021 140.701 146.324 140.921 146.651 141.1L148.156 141.929C148.544 142.142 149.017 142.149 149.423 141.946C149.727 141.794 149.97 141.537 150.104 141.223L153.966 132.168C154.251 131.498 154.366 130.771 154.299 130.055C154.25 129.531 154.104 129.023 153.869 128.558L153.742 128.309C153.461 127.752 153.09 127.249 152.644 126.819Z" fill="black"/>
<path d="M152.644 198.819L151.696 197.904L132.016 182.928L84.9167 141.743C83.1683 140.214 80.4 141.7 80.6207 144.049C80.6826 144.707 80.9934 145.31 81.4893 145.732L130.097 187.121L130.968 196.384C131.119 198 131.846 199.489 133.015 200.578L145.748 212.447C146.021 212.701 146.324 212.921 146.651 213.1L148.156 213.929C148.544 214.142 149.017 214.149 149.423 213.946C149.727 213.794 149.97 213.537 150.104 213.223L153.966 204.168C154.251 203.498 154.366 202.771 154.299 202.055C154.25 201.531 154.104 201.023 153.869 200.558L153.742 200.309C153.461 199.752 153.09 199.249 152.644 198.819Z" fill="black"/>
<path d="M2.72499 160.819L3.67304 159.904L23.3526 144.928L70.4523 103.743C72.2006 102.214 74.969 103.7 74.7483 106.049C74.6864 106.707 74.3756 107.31 73.8796 107.732L25.2718 149.121L24.4014 158.384C24.2495 160 23.5226 161.489 22.3537 162.578L9.62116 174.447C9.34838 174.701 9.04527 174.921 8.71833 175.1L7.21342 175.929C6.82529 176.142 6.35238 176.149 5.94611 175.946C5.64151 175.794 5.39935 175.537 5.26538 175.223L1.40325 166.168C1.1175 165.498 1.00292 164.771 1.07019 164.055C1.11947 163.531 1.26532 163.023 1.50035 162.558L1.62648 162.309C1.90751 161.752 2.27859 161.249 2.72499 160.819Z" fill="black"/>
<path d="M3.72499 231.819L4.67304 230.904L24.3526 215.928L71.4523 174.743C73.2006 173.214 75.969 174.7 75.7483 177.049C75.6864 177.707 75.3756 178.31 74.8796 178.732L26.2718 220.121L25.4014 229.384C25.2495 231 24.5226 232.489 23.3537 233.578L10.6212 245.447C10.3484 245.701 10.0453 245.921 9.71833 246.1L8.21342 246.929C7.82529 247.142 7.35238 247.149 6.94612 246.946C6.64151 246.794 6.39935 246.537 6.26538 246.223L2.40325 237.168C2.1175 236.498 2.00292 235.771 2.07019 235.055C2.11947 234.531 2.26532 234.023 2.50035 233.558L2.62648 233.309C2.90751 232.752 3.27859 232.249 3.72499 231.819Z" fill="black"/>
</svg>
