<svg width="216" height="231" viewBox="0 0 216 231" fill="none" xmlns="http://www.w3.org/2000/svg">
<ellipse cx="106" cy="115.5" rx="15" ry="115.5" fill="black"/>
<path d="M2.32833 73.0745L4.04348 72.4575L30.4239 65.3764L96.8254 44.1851C98.1992 43.7467 99.5698 44.8664 99.4143 46.3001C99.3285 47.0912 98.7805 47.7556 98.0202 47.9905L33.3873 67.9515L33.1212 70.4043C32.8394 73.0024 31.0833 75.2043 28.6131 76.057L13.295 81.3445C12.9578 81.4609 12.612 81.5504 12.2607 81.6121L9.99579 82.0101C9.49984 82.0973 8.99099 82.0774 8.50337 81.9517C7.93868 81.8063 7.41879 81.5233 6.9901 81.128L1.07998 75.6783C0.801214 75.4213 0.660884 75.0472 0.701777 74.6702C0.73486 74.3653 0.883888 74.0847 1.11804 73.8865L1.53757 73.5314C1.77178 73.3331 2.03959 73.1784 2.32833 73.0745Z" fill="black"/>
<path d="M213.416 73.0745L211.701 72.4575L185.321 65.3764L118.919 44.1851C117.546 43.7467 116.175 44.8664 116.33 46.3001C116.416 47.0912 116.964 47.7556 117.725 47.9905L182.358 67.9515L182.624 70.4043C182.905 73.0024 184.662 75.2043 187.132 76.057L202.45 81.3445C202.787 81.4609 203.133 81.5504 203.484 81.6121L205.749 82.0101C206.245 82.0973 206.754 82.0774 207.241 81.9517C207.806 81.8063 208.326 81.5233 208.755 81.128L214.665 75.6783C214.944 75.4213 215.084 75.0472 215.043 74.6702C215.01 74.3653 214.861 74.0847 214.627 73.8865L214.207 73.5314C213.973 73.3331 213.705 73.1784 213.416 73.0745Z" fill="black"/>
<path d="M2.32833 115.468L4.04348 114.851L30.4239 107.769L96.8254 86.5782C98.1992 86.1398 99.5698 87.2594 99.4143 88.6931C99.3285 89.4843 98.7805 90.1487 98.0202 90.3835L33.3873 110.345L33.1212 112.797C32.8394 115.395 31.0833 117.597 28.6131 118.45L13.295 123.738C12.9578 123.854 12.612 123.943 12.2607 124.005L9.99579 124.403C9.49984 124.49 8.99099 124.47 8.50337 124.345C7.93868 124.199 7.41879 123.916 6.9901 123.521L1.07998 118.071C0.801214 117.814 0.660884 117.44 0.701777 117.063C0.73486 116.758 0.883888 116.478 1.11804 116.28L1.53757 115.924C1.77178 115.726 2.03959 115.571 2.32833 115.468Z" fill="black"/>
<path d="M213.416 115.468L211.701 114.851L185.321 107.769L118.919 86.5782C117.546 86.1398 116.175 87.2594 116.33 88.6931C116.416 89.4843 116.964 90.1487 117.725 90.3835L182.358 110.345L182.624 112.797C182.905 115.395 184.662 117.597 187.132 118.45L202.45 123.738C202.787 123.854 203.133 123.943 203.484 124.005L205.749 124.403C206.245 124.49 206.754 124.47 207.241 124.345C207.806 124.199 208.326 123.916 208.755 123.521L214.665 118.071C214.944 117.814 215.084 117.44 215.043 117.063C215.01 116.758 214.861 116.478 214.627 116.28L214.207 115.924C213.973 115.726 213.705 115.571 213.416 115.468Z" fill="black"/>
<path d="M2.32833 157.861L4.04348 157.244L30.4239 150.163L96.8254 128.971C98.1992 128.533 99.5698 129.653 99.4143 131.086C99.3285 131.877 98.7805 132.542 98.0202 132.777L33.3873 152.738L33.1212 155.19C32.8394 157.788 31.0833 159.99 28.6131 160.843L13.295 166.131C12.9578 166.247 12.612 166.337 12.2607 166.398L9.99579 166.796C9.49984 166.883 8.99099 166.863 8.50337 166.738C7.93868 166.592 7.41879 166.309 6.9901 165.914L1.07998 160.464C0.801214 160.207 0.660884 159.833 0.701777 159.456C0.73486 159.151 0.883888 158.871 1.11804 158.673L1.53757 158.318C1.77178 158.119 2.03959 157.965 2.32833 157.861Z" fill="black"/>
<path d="M213.416 157.861L211.701 157.244L185.321 150.163L118.919 128.971C117.546 128.533 116.175 129.653 116.33 131.086C116.416 131.877 116.964 132.542 117.725 132.777L182.358 152.738L182.624 155.19C182.905 157.788 184.662 159.99 187.132 160.843L202.45 166.131C202.787 166.247 203.133 166.337 203.484 166.398L205.749 166.796C206.245 166.883 206.754 166.863 207.241 166.738C207.806 166.592 208.326 166.309 208.755 165.914L214.665 160.464C214.944 160.207 215.084 159.833 215.043 159.456C215.01 159.151 214.861 158.871 214.627 158.673L214.207 158.318C213.973 158.119 213.705 157.965 213.416 157.861Z" fill="black"/>
<path d="M2.32833 200.254L4.04348 199.637L30.4239 192.556L96.8254 171.364C98.1992 170.926 99.5698 172.046 99.4143 173.479C99.3285 174.27 98.7805 174.935 98.0202 175.17L33.3873 195.131L33.1212 197.584C32.8394 200.182 31.0833 202.383 28.6131 203.236L13.295 208.524C12.9578 208.64 12.612 208.73 12.2607 208.791L9.99579 209.189C9.49984 209.276 8.99099 209.257 8.50337 209.131C7.93868 208.985 7.41879 208.702 6.9901 208.307L1.07998 202.858C0.801214 202.6 0.660884 202.226 0.701777 201.849C0.73486 201.544 0.883888 201.264 1.11804 201.066L1.53757 200.711C1.77178 200.512 2.03959 200.358 2.32833 200.254Z" fill="black"/>
<path d="M213.416 200.254L211.701 199.637L185.321 192.556L118.919 171.364C117.546 170.926 116.175 172.046 116.33 173.479C116.416 174.27 116.964 174.935 117.725 175.17L182.358 195.131L182.624 197.584C182.905 200.182 184.662 202.383 187.132 203.236L202.45 208.524C202.787 208.64 203.133 208.73 203.484 208.791L205.749 209.189C206.245 209.276 206.754 209.257 207.241 209.131C207.806 208.985 208.326 208.702 208.755 208.307L214.665 202.858C214.944 202.6 215.084 202.226 215.043 201.849C215.01 201.544 214.861 201.264 214.627 201.066L214.207 200.711C213.973 200.512 213.705 200.358 213.416 200.254Z" fill="black"/>
</svg>
