<svg width="108" height="231" viewBox="0 0 108 231" fill="none" xmlns="http://www.w3.org/2000/svg">
<ellipse cx="53.5" cy="115.5" rx="10.5" ry="115.5" fill="black"/>
<path d="M5.98171 88.7807L6.56153 88.0179L19.1524 75.1968L48.5362 40.5012C49.6262 39.2141 51.9009 40.1064 52.0683 41.8867C52.1154 42.3872 51.968 42.8653 51.6565 43.2227L21.1803 78.1867L21.7824 84.5915C21.9346 86.21 21.4951 87.7641 20.5446 88.9681L13.0653 98.4425C12.897 98.6557 12.7011 98.8452 12.4818 99.0068L11.4745 99.749C11.2147 99.9406 10.8625 99.9837 10.5303 99.8646C10.2809 99.7752 10.0631 99.6014 9.91814 99.3761L5.75075 92.8981C5.4426 92.4191 5.25421 91.8833 5.20323 91.3411C5.16588 90.9439 5.20308 90.5514 5.31292 90.1837L5.37203 89.9858C5.50332 89.5462 5.70928 89.1391 5.98171 88.7807Z" fill="black"/>
<path d="M101.895 89.0242L101.322 88.2609L88.8331 75.3772L59.7148 40.5404C58.6314 39.2442 56.3491 40.1325 56.1815 41.9154C56.1348 42.4112 56.2793 42.8851 56.5856 43.2412L86.8161 78.3807L86.208 84.8492C86.057 86.4544 86.4881 87.9967 87.4232 89.197L94.8553 98.7368C95.0203 98.9487 95.2129 99.1372 95.4287 99.2983L96.4302 100.046C96.6881 100.238 97.0396 100.282 97.3704 100.162C97.6168 100.073 97.8316 99.8998 97.9739 99.6764L102.121 93.1664C102.428 92.6836 102.616 92.1449 102.668 91.5999C102.705 91.2009 102.669 90.8065 102.56 90.4365L102.502 90.2402C102.372 89.7973 102.167 89.3865 101.895 89.0242Z" fill="black"/>
<path d="M5.98171 123.927L6.56153 123.165L19.1524 110.344L48.5362 75.6479C49.6262 74.3608 51.9009 75.2531 52.0683 77.0334C52.1154 77.5339 51.968 78.0121 51.6565 78.3694L21.1803 113.333L21.7824 119.738C21.9346 121.357 21.4951 122.911 20.5446 124.115L13.0653 133.589C12.897 133.802 12.7011 133.992 12.4818 134.153L11.4745 134.896C11.2147 135.087 10.8625 135.13 10.5303 135.011C10.2809 134.922 10.0631 134.748 9.91814 134.523L5.75075 128.045C5.4426 127.566 5.25421 127.03 5.20323 126.488C5.16588 126.091 5.20308 125.698 5.31292 125.33L5.37203 125.132C5.50332 124.693 5.70928 124.286 5.98171 123.927Z" fill="black"/>
<path d="M101.895 124.171L101.322 123.408L88.8331 110.524L59.7148 75.6871C58.6314 74.391 56.3491 75.2792 56.1815 77.0622C56.1348 77.5579 56.2793 78.0319 56.5856 78.3879L86.8161 113.527L86.208 119.996C86.057 121.601 86.4881 123.143 87.4232 124.344L94.8553 133.884C95.0203 134.095 95.2129 134.284 95.4287 134.445L96.4302 135.193C96.6881 135.385 97.0396 135.428 97.3704 135.309C97.6168 135.219 97.8316 135.047 97.9739 134.823L102.121 128.313C102.428 127.83 102.616 127.292 102.668 126.747C102.705 126.348 102.669 125.953 102.56 125.583L102.502 125.387C102.372 124.944 102.167 124.533 101.895 124.171Z" fill="black"/>
<path d="M5.98171 159.074L6.56153 158.311L19.1524 145.49L48.5362 110.795C49.6262 109.508 51.9009 110.4 52.0683 112.18C52.1154 112.681 51.968 113.159 51.6565 113.516L21.1803 148.48L21.7824 154.885C21.9346 156.503 21.4951 158.058 20.5446 159.262L13.0653 168.736C12.897 168.949 12.7011 169.139 12.4818 169.3L11.4745 170.042C11.2147 170.234 10.8625 170.277 10.5303 170.158C10.2809 170.069 10.0631 169.895 9.91814 169.67L5.75075 163.192C5.4426 162.713 5.25421 162.177 5.20323 161.635C5.16588 161.237 5.20308 160.845 5.31292 160.477L5.37203 160.279C5.50332 159.84 5.70928 159.433 5.98171 159.074Z" fill="black"/>
<path d="M101.895 159.318L101.322 158.554L88.8331 145.671L59.7148 110.834C58.6314 109.538 56.3491 110.426 56.1815 112.209C56.1348 112.705 56.2793 113.179 56.5856 113.535L86.8161 148.674L86.208 155.143C86.057 156.748 86.4881 158.29 87.4232 159.49L94.8553 169.03C95.0203 169.242 95.2129 169.431 95.4287 169.592L96.4302 170.339C96.6881 170.532 97.0396 170.575 97.3704 170.455C97.6168 170.366 97.8316 170.193 97.9739 169.97L102.121 163.46C102.428 162.977 102.616 162.438 102.668 161.893C102.705 161.494 102.669 161.1 102.56 160.73L102.502 160.534C102.372 160.091 102.167 159.68 101.895 159.318Z" fill="black"/>
<path d="M5.98171 194.221L6.56153 193.458L19.1524 180.637L48.5362 145.942C49.6262 144.655 51.9009 145.547 52.0683 147.327C52.1154 147.828 51.968 148.306 51.6565 148.663L21.1803 183.627L21.7824 190.032C21.9346 191.65 21.4951 193.205 20.5446 194.409L13.0653 203.883C12.897 204.096 12.7011 204.286 12.4818 204.447L11.4745 205.189C11.2147 205.381 10.8625 205.424 10.5303 205.305C10.2809 205.216 10.0631 205.042 9.91814 204.817L5.75075 198.338C5.4426 197.859 5.25421 197.324 5.20323 196.782C5.16588 196.384 5.20308 195.992 5.31292 195.624L5.37203 195.426C5.50332 194.987 5.70928 194.58 5.98171 194.221Z" fill="black"/>
<path d="M101.895 194.465L101.322 193.701L88.8331 180.818L59.7148 145.981C58.6314 144.685 56.3491 145.573 56.1815 147.356C56.1348 147.852 56.2793 148.326 56.5856 148.682L86.8161 183.821L86.208 190.29C86.057 191.895 86.4881 193.437 87.4232 194.637L94.8553 204.177C95.0203 204.389 95.2129 204.578 95.4287 204.739L96.4302 205.486C96.6881 205.679 97.0396 205.722 97.3704 205.602C97.6168 205.513 97.8316 205.34 97.9739 205.117L102.121 198.607C102.428 198.124 102.616 197.585 102.668 197.04C102.705 196.641 102.669 196.247 102.56 195.877L102.502 195.681C102.372 195.238 102.167 194.827 101.895 194.465Z" fill="black"/>
</svg>
