<svg width="150" height="231" viewBox="0 0 150 231" fill="none" xmlns="http://www.w3.org/2000/svg">
<ellipse cx="75.5" cy="115.5" rx="10.5" ry="115.5" fill="black"/>
<path d="M1.74169 71.011L2.8113 70.4575L21.1527 63.3764L66.4289 42.5939C67.6967 42.0119 69.2072 43.1353 69.0984 44.579C69.0503 45.2157 68.6785 45.7557 68.116 46.0056L23.213 65.9515L22.9776 69.0729C22.8085 71.3151 21.5442 73.2375 19.6056 74.2L9.4471 79.2435C9.07756 79.427 8.688 79.5708 8.28425 79.6728L6.9707 80.0048C6.61608 80.0944 6.2349 80.0713 5.87637 79.9385C5.51027 79.8029 5.18515 79.5592 4.94471 79.2403L0.825697 73.7775C0.579802 73.4514 0.459207 73.0511 0.488774 72.6591C0.511584 72.3566 0.622664 72.0748 0.807993 71.8492L1.01033 71.6028C1.21182 71.3575 1.45992 71.1568 1.74169 71.011Z" fill="black"/>
<path d="M148.258 71.011L147.189 70.4575L128.847 63.3764L83.5712 42.5939C82.3034 42.0119 80.7928 43.1353 80.9017 44.579C80.9497 45.2157 81.3216 45.7557 81.884 46.0056L126.787 65.9515L127.022 69.0729C127.192 71.3151 128.456 73.2375 130.394 74.2L140.553 79.2435C140.922 79.427 141.312 79.5708 141.716 79.6728L143.029 80.0048C143.384 80.0944 143.765 80.0713 144.124 79.9385C144.49 79.8029 144.815 79.5592 145.055 79.2403L149.174 73.7775C149.42 73.4514 149.541 73.0511 149.511 72.6591C149.488 72.3566 149.377 72.0748 149.192 71.8492L148.99 71.6028C148.788 71.3575 148.54 71.1568 148.258 71.011Z" fill="black"/>
<path d="M1.74166 113.404L2.81127 112.851L21.1527 105.769L66.4288 84.987C67.6966 84.405 69.2072 85.5283 69.0983 86.9721C69.0503 87.6088 68.6784 88.1488 68.116 88.3987L23.213 108.345L22.9776 111.466C22.8085 113.708 21.5442 115.631 19.6056 116.593L9.44707 121.637C9.07753 121.82 8.68797 121.964 8.28422 122.066L6.97066 122.398C6.61605 122.488 6.23487 122.464 5.87634 122.332C5.51024 122.196 5.18512 121.952 4.94468 121.633L0.825667 116.171C0.579772 115.844 0.459177 115.444 0.488743 115.052C0.511554 114.75 0.622634 114.468 0.807962 114.242L1.0103 113.996C1.21179 113.751 1.45989 113.55 1.74166 113.404Z" fill="black"/>
<path d="M148.258 113.404L147.189 112.851L128.847 105.769L83.5711 84.987C82.3033 84.405 80.7928 85.5283 80.9016 86.9721C80.9497 87.6088 81.3215 88.1488 81.884 88.3987L126.787 108.345L127.022 111.466C127.191 113.708 128.456 115.631 130.394 116.593L140.553 121.637C140.922 121.82 141.312 121.964 141.716 122.066L143.029 122.398C143.384 122.488 143.765 122.464 144.124 122.332C144.49 122.196 144.815 121.952 145.055 121.633L149.174 116.171C149.42 115.844 149.541 115.444 149.511 115.052C149.488 114.75 149.377 114.468 149.192 114.242L148.99 113.996C148.788 113.751 148.54 113.55 148.258 113.404Z" fill="black"/>
<path d="M1.74166 155.797L2.81127 155.244L21.1527 148.163L66.4288 127.38C67.6966 126.798 69.2072 127.921 69.0983 129.365C69.0503 130.002 68.6784 130.542 68.116 130.792L23.213 150.738L22.9776 153.859C22.8085 156.101 21.5442 158.024 19.6056 158.986L9.44707 164.03C9.07753 164.213 8.68797 164.357 8.28422 164.459L6.97066 164.791C6.61605 164.881 6.23487 164.857 5.87634 164.725C5.51024 164.589 5.18512 164.345 4.94468 164.026L0.825667 158.564C0.579772 158.238 0.459177 157.837 0.488743 157.445C0.511554 157.143 0.622634 156.861 0.807962 156.635L1.0103 156.389C1.21179 156.144 1.45989 155.943 1.74166 155.797Z" fill="black"/>
<path d="M148.258 155.797L147.189 155.244L128.847 148.163L83.5711 127.38C82.3033 126.798 80.7928 127.921 80.9016 129.365C80.9497 130.002 81.3215 130.542 81.884 130.792L126.787 150.738L127.022 153.859C127.191 156.101 128.456 158.024 130.394 158.986L140.553 164.03C140.922 164.213 141.312 164.357 141.716 164.459L143.029 164.791C143.384 164.881 143.765 164.857 144.124 164.725C144.49 164.589 144.815 164.345 145.055 164.026L149.174 158.564C149.42 158.238 149.541 157.837 149.511 157.445C149.488 157.143 149.377 156.861 149.192 156.635L148.99 156.389C148.788 156.144 148.54 155.943 148.258 155.797Z" fill="black"/>
<path d="M1.74166 198.19L2.81127 197.637L21.1527 190.556L66.4288 169.773C67.6966 169.191 69.2072 170.314 69.0983 171.758C69.0503 172.395 68.6784 172.935 68.116 173.185L23.213 193.131L22.9776 196.252C22.8085 198.494 21.5442 200.417 19.6056 201.379L9.44707 206.423C9.07753 206.606 8.68797 206.75 8.28422 206.852L6.97066 207.184C6.61605 207.274 6.23487 207.251 5.87634 207.118C5.51024 206.982 5.18512 206.738 4.94468 206.42L0.825667 200.957C0.579772 200.631 0.459177 200.23 0.488743 199.838C0.511554 199.536 0.622634 199.254 0.807962 199.028L1.0103 198.782C1.21179 198.537 1.45989 198.336 1.74166 198.19Z" fill="black"/>
<path d="M148.258 198.19L147.189 197.637L128.847 190.556L83.5711 169.773C82.3033 169.191 80.7928 170.314 80.9016 171.758C80.9497 172.395 81.3215 172.935 81.884 173.185L126.787 193.131L127.022 196.252C127.191 198.494 128.456 200.417 130.394 201.379L140.553 206.423C140.922 206.606 141.312 206.75 141.716 206.852L143.029 207.184C143.384 207.274 143.765 207.251 144.124 207.118C144.49 206.982 144.815 206.738 145.055 206.42L149.174 200.957C149.42 200.631 149.541 200.23 149.511 199.838C149.488 199.536 149.377 199.254 149.192 199.028L148.99 198.782C148.788 198.537 148.54 198.336 148.258 198.19Z" fill="black"/>
</svg>
