<svg width="191" height="367" viewBox="0 0 191 367" fill="none" xmlns="http://www.w3.org/2000/svg">
<ellipse cx="94" cy="183.5" rx="15" ry="183.5" fill="black"/>
<path d="M185.914 108.425L184.76 107.461L162.044 92.4841L107.144 50.897C105.198 49.423 102.433 50.9892 102.696 53.4162C102.78 54.1903 103.184 54.8939 103.811 55.3561L159.828 96.6777L160.804 105.674C160.997 107.449 161.885 109.075 163.274 110.197L177.832 121.953C178.188 122.241 178.577 122.485 178.99 122.682L180.685 123.491C181.132 123.704 181.649 123.713 182.103 123.517C182.477 123.356 182.781 123.066 182.961 122.701L187.4 113.684C187.715 113.043 187.842 112.326 187.765 111.616C187.708 111.09 187.541 110.582 187.274 110.126L187.105 109.834C186.792 109.299 186.389 108.822 185.914 108.425Z" fill="black"/>
<path d="M184.914 168.868L183.76 167.904L161.044 152.928L106.144 111.341C104.198 109.867 101.433 111.433 101.696 113.86C101.78 114.634 102.184 115.338 102.811 115.8L158.828 157.121L159.804 166.117C159.997 167.892 160.885 169.519 162.274 170.641L176.832 182.397C177.188 182.684 177.577 182.929 177.99 183.126L179.685 183.934C180.132 184.147 180.649 184.157 181.103 183.961C181.477 183.799 181.781 183.51 181.961 183.144L186.4 174.128C186.715 173.487 186.842 172.77 186.765 172.059C186.708 171.534 186.541 171.026 186.274 170.569L186.105 170.278C185.792 169.742 185.389 169.265 184.914 168.868Z" fill="black"/>
<path d="M187.914 230.868L186.76 229.904L164.044 214.928L109.144 173.341C107.198 171.867 104.433 173.433 104.696 175.86C104.78 176.634 105.184 177.338 105.811 177.8L161.828 219.121L162.804 228.117C162.997 229.892 163.885 231.519 165.274 232.641L179.832 244.397C180.188 244.684 180.577 244.929 180.99 245.126L182.685 245.934C183.132 246.147 183.649 246.157 184.103 245.961C184.477 245.799 184.781 245.51 184.961 245.144L189.4 236.128C189.715 235.487 189.842 234.77 189.765 234.059C189.708 233.534 189.541 233.026 189.274 232.569L189.105 232.278C188.792 231.742 188.389 231.265 187.914 230.868Z" fill="black"/>
<path d="M186.914 291.312L185.76 290.348L163.044 275.371L108.144 233.784C106.198 232.31 103.433 233.876 103.696 236.303C103.78 237.078 104.184 237.781 104.811 238.243L160.828 279.565L161.804 288.561C161.997 290.336 162.885 291.963 164.274 293.084L178.832 304.84C179.188 305.128 179.577 305.373 179.99 305.57L181.685 306.378C182.132 306.591 182.649 306.6 183.103 306.404C183.477 306.243 183.781 305.953 183.961 305.588L188.4 296.572C188.715 295.931 188.842 295.213 188.765 294.503C188.708 293.977 188.541 293.47 188.274 293.013L188.105 292.721C187.792 292.186 187.389 291.709 186.914 291.312Z" fill="black"/>
<path d="M5.08626 136.868L6.23989 135.904L28.9564 120.928L83.8557 79.3406C85.8016 77.8666 88.5673 79.4328 88.304 81.8598C88.22 82.6339 87.8157 83.3375 87.189 83.7998L31.1718 125.121L30.196 134.117C30.0034 135.892 29.1153 137.519 27.726 138.641L13.1679 150.397C12.8118 150.684 12.4232 150.929 12.0101 151.126L10.3146 151.934C9.86805 152.147 9.35136 152.157 8.89727 151.961C8.52335 151.799 8.21917 151.51 8.03926 151.144L3.60006 142.128C3.28453 141.487 3.15788 140.77 3.23492 140.059C3.29195 139.534 3.45911 139.026 3.72552 138.569L3.89546 138.278C4.20769 137.742 4.61063 137.265 5.08626 136.868Z" fill="black"/>
<path d="M6.08626 197.312L7.23989 196.348L29.9564 181.371L84.8557 139.784C86.8016 138.31 89.5673 139.876 89.304 142.303C89.22 143.078 88.8157 143.781 88.189 144.243L32.1718 185.565L31.196 194.561C31.0034 196.336 30.1153 197.963 28.726 199.084L14.1679 210.84C13.8118 211.128 13.4232 211.373 13.0101 211.57L11.3146 212.378C10.868 212.591 10.3514 212.6 9.89727 212.404C9.52335 212.243 9.21917 211.953 9.03926 211.588L4.60006 202.572C4.28453 201.931 4.15788 201.213 4.23492 200.503C4.29195 199.977 4.45911 199.47 4.72552 199.013L4.89546 198.721C5.20769 198.186 5.61063 197.709 6.08626 197.312Z" fill="black"/>
<path d="M3.08626 259.312L4.23989 258.348L26.9564 243.371L81.8557 201.784C83.8016 200.31 86.5673 201.876 86.304 204.303C86.22 205.078 85.8157 205.781 85.189 206.243L29.1718 247.565L28.196 256.561C28.0034 258.336 27.1153 259.963 25.726 261.084L11.1679 272.84C10.8118 273.128 10.4232 273.373 10.0101 273.57L8.31455 274.378C7.86805 274.591 7.35136 274.6 6.89727 274.404C6.52335 274.243 6.21917 273.953 6.03926 273.588L1.60006 264.572C1.28453 263.931 1.15788 263.213 1.23492 262.503C1.29195 261.977 1.45911 261.47 1.72552 261.013L1.89546 260.721C2.20769 260.186 2.61063 259.709 3.08626 259.312Z" fill="black"/>
<path d="M4.08626 319.755L5.23989 318.792L27.9564 303.815L82.8557 262.228C84.8016 260.754 87.5673 262.32 87.304 264.747C87.22 265.521 86.8157 266.225 86.189 266.687L30.1718 308.008L29.196 317.004C29.0034 318.78 28.1153 320.406 26.726 321.528L12.1679 333.284C11.8118 333.572 11.4232 333.816 11.0101 334.013L9.31455 334.822C8.86805 335.034 8.35136 335.044 7.89727 334.848C7.52335 334.686 7.21917 334.397 7.03926 334.031L2.60006 325.015C2.28453 324.374 2.15788 323.657 2.23492 322.947C2.29195 322.421 2.45911 321.913 2.72552 321.456L2.89546 321.165C3.20769 320.63 3.61063 320.153 4.08626 319.755Z" fill="black"/>
</svg>
